<svg height="40" viewBox="0 0 3468 1024" fill="none" xmlns="http://www.w3.org/2000/svg">
<path d="M511.429 941.75C509.062 937.516 507.423 934.797 505.983 931.977C427.561 778.244 349.17 624.494 270.809 470.727C217.04 364.896 241.755 233.037 329.717 153.191C422.317 69.135 557.207 58.716 661.017 127.602C770.968 200.56 812.441 347.65 753.974 465.941C696.963 581.301 637.41 695.404 578.964 810.056C558.217 850.756 537.454 891.448 516.675 932.132C515.326 934.774 513.841 937.343 511.429 941.75ZM672.558 350.75C672.358 261.881 599.558 189.402 510.898 189.793C422.298 190.182 350.333 262.261 350.169 350.779C350.006 439.532 422.588 512.204 511.376 512.186C600.183 512.162 672.759 439.471 672.558 350.745V350.75Z" fill="#8C2EFA"/>
<path d="M865.278 427.624C862.455 420.871 858.773 414.51 854.322 408.7C846.337 398.138 836.148 389.879 825.686 382.07C809.664 370.244 792.804 359.597 775.239 350.214C775.257 351.514 775.288 352.807 775.288 354.114C775.288 359.075 775.139 363.999 774.866 368.891C779.145 373.307 782.871 378.228 785.962 383.545C791.909 394.034 789.144 404.762 779.395 411.568C775.055 414.503 770.342 416.845 765.381 418.532C751.827 423.321 737.656 424.623 723.462 425.215C686.108 426.776 649.062 423.075 612.162 417.547C561.612 409.864 511.637 398.784 462.576 384.382C411.637 369.554 361.595 352.109 313.976 327.882C296.75 319.12 280.007 309.463 265.044 296.85C258.044 290.95 251.564 284.492 247.538 275.911C242.685 265.565 244.953 255.66 253.838 248.819C256.346 246.888 259.078 244.883 262.009 244.004C265.186 243.052 268.368 242.069 271.557 241.125C274.29 235.317 277.22 229.627 280.345 224.055C257.045 223.928 233.802 225.264 210.723 229.712C196.491 232.455 182.493 236.137 170.205 244.568C156.405 254.036 153.083 266.637 161.705 281.209C166.661 289.348 172.597 296.848 179.379 303.542C194.61 318.891 212.546 330.542 230.911 341.404C271.688 365.533 314.804 384.283 358.978 400.453C453.721 435.136 550.895 459.211 650.705 471.547C692.933 476.766 735.276 479.413 777.796 476.618C797.432 475.327 816.907 472.764 835.67 466.184C844.451 463.104 852.859 459.233 859.645 452.406C866.605 445.406 869.033 436.839 865.278 427.624Z" fill="white" stroke="#8B2EF7" stroke-width="9" stroke-miterlimit="10"/>
<path d="M1284 204H1072V764H1200V588H1284C1394.4 588 1480 502.4 1480 396C1480 289.6 1394.4 204 1284 204ZM1284 468H1200V324H1284C1323.2 324 1352 355.2 1352 396C1352 436.8 1323.2 468 1284 468ZM1539.88 764H1659.88V180H1539.88V764ZM2038.09 364V401.6C2011.69 371.2 1972.49 352.8 1918.89 352.8C1814.09 352.8 1727.69 444.8 1727.69 564C1727.69 683.2 1814.09 775.2 1918.89 775.2C1972.49 775.2 2011.69 756.8 2038.09 726.4V764H2158.09V364H2038.09ZM1942.89 661.6C1887.69 661.6 1847.69 624 1847.69 564C1847.69 504 1887.69 466.4 1942.89 466.4C1998.09 466.4 2038.09 504 2038.09 564C2038.09 624 1998.09 661.6 1942.89 661.6ZM2480.53 352.8C2427.73 352.8 2387.73 372 2366.13 401.6V364H2246.13V764H2366.13V545.6C2366.13 488.8 2396.53 463.2 2440.53 463.2C2478.93 463.2 2510.13 486.4 2510.13 536V764H2630.13V518.4C2630.13 410.4 2561.33 352.8 2480.53 352.8ZM2772.53 328.8C2811.73 328.8 2844.53 296 2844.53 256.8C2844.53 217.6 2811.73 184.8 2772.53 184.8C2733.33 184.8 2700.53 217.6 2700.53 256.8C2700.53 296 2733.33 328.8 2772.53 328.8ZM2712.53 764H2832.53V364H2712.53V764ZM3154.74 479.2V364H3072.34V252L2952.34 288V364H2888.34V479.2H2952.34V620.8C2952.34 732.8 2997.94 780 3154.74 764V655.2C3101.94 658.4 3072.34 655.2 3072.34 620.8V479.2H3154.74Z" fill="#8C2EFA"/>
</svg>
